<svg xmlns="http://www.w3.org/2000/svg" width="1024" height="1024" viewBox="0 0 1024 1024" version="1.1">
	<path d="M 577 260.485 C 558.534 264.170, 541.005 274.202, 524.910 290.297 C 504.022 311.185, 488.685 336.574, 469.211 382.500 C 464.780 392.950, 455.738 414.325, 449.118 430 C 423.119 491.564, 395.786 552.141, 367.450 611 C 359.903 626.675, 352.223 643.100, 350.383 647.500 C 346.339 657.167, 346.301 656.825, 348.494 630.461 C 352.979 576.521, 355.864 549.076, 362.992 492.500 C 372.718 415.304, 372.422 418.664, 372.463 385 C 372.499 355.123, 372.444 354.265, 369.751 343 C 365.380 324.710, 358.328 311.494, 346.061 298.606 C 318.926 270.093, 273.684 261.962, 226.374 277.095 C 213.494 281.215, 191.109 292.731, 180.500 300.695 C 141.616 329.885, 119.559 373.418, 121.318 417.500 C 122.360 443.612, 130.672 462.810, 146.774 476.296 C 153.480 481.913, 164.065 487.351, 172.431 489.477 C 180.630 491.561, 195.972 491.580, 203.937 489.516 C 228.155 483.241, 247.951 460.181, 247.989 438.202 C 247.999 432.613, 247.691 431.619, 245.256 429.361 C 241.105 425.514, 237.256 426.596, 229.598 433.759 C 221.665 441.180, 215.279 443.473, 204.476 442.780 C 190.783 441.901, 180.894 434.601, 174.503 420.653 C 170.248 411.367, 168.995 405.091, 169.022 393.201 C 169.062 375.309, 175.461 355.917, 186.371 340.628 C 195.651 327.624, 212.550 313.627, 226.327 307.534 C 253.152 295.671, 283.312 298.619, 297.850 314.526 C 308.144 325.789, 311.447 337.157, 311.355 361 C 311.277 381.427, 309.630 394.304, 297.991 465.500 C 283.333 555.162, 277.569 607.571, 276.318 662.547 C 275.508 698.138, 277.180 711.467, 284.218 725.493 C 294.262 745.512, 315.189 755.967, 334.068 750.398 C 342.134 748.018, 346.734 742.741, 351.500 730.402 C 364.248 697.399, 388.493 643.723, 425.987 565.500 C 435.478 545.700, 447.416 520.500, 452.516 509.500 C 457.616 498.500, 464.133 484.550, 466.999 478.500 C 469.864 472.450, 477.153 456.925, 483.196 444 C 515.589 374.722, 524.360 357.840, 538.789 337 C 552.507 317.187, 568.833 303.390, 581.354 301.028 C 588.855 299.612, 591.680 300.074, 600.779 304.199 C 610.933 308.803, 617.141 307.278, 622.752 298.799 C 625.247 295.029, 625.500 293.802, 625.500 285.495 C 625.500 277.045, 625.267 275.966, 622.459 271.422 C 618.977 265.786, 613.577 262.345, 605.073 260.343 C 598.142 258.712, 585.569 258.775, 577 260.485 M 774 275.112 C 734.296 279.626, 683.036 302.788, 643.363 334.138 C 597.425 370.440, 556.335 420.662, 532.376 469.792 C 506.142 523.585, 492.831 581.526, 496.946 624 C 498.453 639.545, 503.519 659.675, 509.051 672.097 C 517.802 691.748, 534.035 711.900, 551.500 724.795 C 566.847 736.126, 590.778 746.407, 612.500 750.999 C 625.396 753.726, 650.065 754.727, 663.634 753.075 C 689.992 749.864, 715.434 740.694, 739.651 725.676 C 775.672 703.338, 808.470 666.128, 825.630 628.131 C 833.443 610.829, 833.552 599.677, 825.948 595.601 C 820.875 592.881, 815.576 594.056, 811.009 598.913 C 809.079 600.966, 804.618 607.563, 801.096 613.573 C 780.046 649.493, 752.897 679.588, 727.753 694.873 C 704.627 708.932, 685.451 715.021, 664.121 715.079 C 624.944 715.186, 597.344 697.587, 587.150 666 C 577.901 637.341, 580.872 586.128, 594.662 536.500 C 618.494 450.734, 675.380 361.554, 729.827 324.599 C 752.137 309.457, 776.521 301.976, 794.102 304.880 C 818.498 308.909, 830.991 326.318, 829.709 354.500 C 828.818 374.121, 820.665 393.570, 807.303 407.953 C 792.298 424.104, 777.838 429.888, 763.409 425.511 C 756.782 423.500, 752.688 423.622, 749.861 425.913 C 747.938 427.471, 747.513 428.735, 747.569 432.723 C 747.660 439.210, 750.915 445.714, 757.779 453.128 C 767.260 463.368, 775.483 467.002, 789.435 467.116 C 803.789 467.234, 816.096 463.201, 829.356 454.034 C 853.463 437.370, 871.491 410.096, 878.624 379.500 C 881.231 368.315, 881.220 343.403, 878.603 333.608 C 874.201 317.132, 865.355 304.033, 851.560 293.562 C 831.118 278.047, 804.299 271.667, 774 275.112" stroke="none" fill="#9f262b" fill-rule="evenodd"/>
</svg>